<svg xmlns="http://www.w3.org/2000/svg" viewBox="0 0 512 512" width="512" height="512">
  <defs>
    <!-- Background Gradient -->
    <linearGradient id="bgGrad" x1="0%" y1="0%" x2="100%" y2="100%">
      <stop offset="0%" style="stop-color:#0f172a;stop-opacity:1" />
      <stop offset="100%" style="stop-color:#0284c7;stop-opacity:1" />
    </linearGradient>
    
    <!-- Shield Gradient -->
    <linearGradient id="shieldGrad" x1="0%" y1="0%" x2="100%" y2="100%">
      <stop offset="0%" style="stop-color:#38bdf8;stop-opacity:1" />
      <stop offset="100%" style="stop-color:#0284c7;stop-opacity:1" />
    </linearGradient>

    <!-- Glow Effect -->
    <filter id="glow" x="-20%" y="-20%" width="140%" height="140%">
      <feGaussianBlur stdDeviation="16" result="blur" />
      <feComposite in="SourceGraphic" in2="blur" operator="over" />
    </filter>
  </defs>

  <!-- Rounded App Background -->
  <rect width="512" height="512" rx="110" fill="url(#bgGrad)"/>
  
  <!-- Outer Shield Glow -->
  <path d="M256 70 L390 125 V256 C390 350 330 425 256 450 C182 425 122 350 122 256 V125 Z" 
        fill="none" stroke="#38bdf8" stroke-width="20" stroke-opacity="0.3" filter="url(#glow)"/>

  <!-- Inner Shield -->
  <path d="M256 85 L375 135 V256 C375 340 320 405 256 430 C192 405 137 340 137 256 V135 Z" 
        fill="url(#shieldGrad)"/>

  <!-- Tech Shield Core -->
  <path d="M256 120 L345 160 V256 C345 320 305 370 256 390 C207 370 167 320 167 256 V160 Z" 
        fill="#0f172a" fill-opacity="0.35"/>

  <!-- Neon Checkmark -->
  <path d="M200 255 L240 295 L315 200" 
        fill="none" stroke="#ffffff" stroke-width="32" stroke-linecap="round" stroke-linejoin="round"/>
</svg>